<svg width="141" height="36" viewBox="0 0 141 36" fill="none" xmlns="http://www.w3.org/2000/svg">
<path d="M30.577 9.55273V26.6137L15.7891 35.1667V18.0907C15.7891 18.0907 30.1628 9.79185 30.577 9.55273Z" fill="#FFD700" stroke="white" stroke-width="0.209598" stroke-miterlimit="2" stroke-linejoin="round"/>
<path d="M15.7883 18.0907V35.1667L1 26.6137V9.55273C1.41426 9.79185 15.7883 18.0907 15.7883 18.0907Z" fill="#FF0000" stroke="white" stroke-width="0.209598" stroke-miterlimit="2" stroke-linejoin="round"/>
<path d="M30.5763 9.55304C30.1621 9.79215 15.7883 18.091 15.7883 18.091C15.7883 18.091 1.41426 9.79215 1 9.55304L15.7883 1L30.5763 9.55304Z" fill="#4E008E" stroke="white" stroke-width="0.17472" stroke-miterlimit="2" stroke-linejoin="round"/>
<path d="M42.1 24L43.88 9.58H47.34L46.48 16.6C46.6 16.28 46.78 15.9933 47.02 15.74L52.88 9.58H56.72L49.96 16.62L55.16 24H50.96L46.78 17.92C46.62 17.6933 46.5 17.38 46.42 16.98L45.56 24H42.1ZM67.4133 13.72L66.1533 24H62.8733L62.9733 23.14L62.3333 23.62C61.6133 24.02 60.8199 24.22 59.9533 24.22C58.7399 24.22 57.7599 23.82 57.0133 23.02C56.2666 22.22 55.8933 21.16 55.8933 19.84C55.8933 17.7733 56.4933 16.1133 57.6933 14.86C58.8933 13.6067 60.4999 12.98 62.5133 12.98C63.3933 12.98 64.3133 13.0667 65.2733 13.24C65.5799 13.2933 65.9266 13.3667 66.3133 13.46C66.7133 13.5533 67.0799 13.64 67.4133 13.72ZM63.2333 21.04L63.9133 15.72C63.4066 15.5467 62.8999 15.46 62.3933 15.46C61.4733 15.46 60.7066 15.8 60.0933 16.48C59.4799 17.16 59.1733 18.0067 59.1733 19.02C59.1733 19.7933 59.3866 20.4333 59.8133 20.94C60.2399 21.4467 60.7799 21.7 61.4333 21.7C62.0466 21.7 62.6466 21.48 63.2333 21.04ZM80.0891 13.72L78.8291 24H75.5491L75.6491 23.14L75.0091 23.62C74.2891 24.02 73.4957 24.22 72.6291 24.22C71.4157 24.22 70.4357 23.82 69.6891 23.02C68.9424 22.22 68.5691 21.16 68.5691 19.84C68.5691 17.7733 69.1691 16.1133 70.3691 14.86C71.5691 13.6067 73.1757 12.98 75.1891 12.98C76.0691 12.98 76.9891 13.0667 77.9491 13.24C78.2557 13.2933 78.6024 13.3667 78.9891 13.46C79.3891 13.5533 79.7557 13.64 80.0891 13.72ZM75.9091 21.04L76.5891 15.72C76.0824 15.5467 75.5757 15.46 75.0691 15.46C74.1491 15.46 73.3824 15.8 72.7691 16.48C72.1557 17.16 71.8491 18.0067 71.8491 19.02C71.8491 19.7933 72.0624 20.4333 72.4891 20.94C72.9157 21.4467 73.4557 21.7 74.1091 21.7C74.7224 21.7 75.3224 21.48 75.9091 21.04ZM79.6048 24L87.2248 9.58H90.7448L95.0448 24H91.2848L90.4848 20.84H84.8448L83.3448 24H79.6048ZM88.2448 13.96L85.9848 18.58H89.8848L88.7248 13.96C88.6448 13.6933 88.6048 13.3733 88.6048 13V12.72C88.5382 13.0533 88.4782 13.3133 88.4248 13.5C88.3848 13.6733 88.3248 13.8267 88.2448 13.96ZM95.5695 15.58L95.8695 13.28H97.3695L97.3895 13.1C97.5229 11.98 98.0162 11.0733 98.8695 10.38C99.7362 9.67333 100.79 9.32 102.03 9.32C102.483 9.32 102.89 9.34667 103.25 9.4C103.623 9.45333 104.103 9.56 104.69 9.72L104.43 11.8C103.83 11.5867 103.256 11.48 102.71 11.48C101.443 11.48 100.756 11.9933 100.65 13.02L100.61 13.28H103.23L102.95 15.56H100.33L99.2895 24H96.0295L97.0695 15.58H95.5695ZM102.178 24L103.498 13.28H106.738L106.478 15.46C107.131 14.58 107.711 13.9533 108.218 13.58C108.738 13.2067 109.265 13.02 109.798 13.02C110.531 13.02 111.265 13.3133 111.998 13.9L110.418 16.96C109.831 16.4533 109.271 16.2 108.738 16.2C108.125 16.2 107.538 16.5333 106.978 17.2C106.418 17.8533 106.085 18.6067 105.978 19.46L105.418 24H102.178ZM111.475 24L112.795 13.28H116.035L114.715 24H111.475ZM112.975 11.02C112.975 10.4733 113.169 10.0133 113.555 9.64C113.942 9.26667 114.409 9.08 114.955 9.08C115.355 9.08 115.702 9.26 115.995 9.62C116.289 9.98 116.435 10.4133 116.435 10.92C116.435 11.36 116.255 11.74 115.895 12.06C115.549 12.3667 115.129 12.52 114.635 12.52C114.182 12.52 113.789 12.3733 113.455 12.08C113.135 11.7733 112.975 11.42 112.975 11.02ZM116.963 24L118.743 9.58H122.003L120.983 17.86L125.443 13.28H129.283L124.323 18.16L128.503 24H124.463L120.883 18.64L120.203 24H116.963ZM140.714 13.72L139.454 24H136.174L136.274 23.14L135.634 23.62C134.914 24.02 134.121 24.22 133.254 24.22C132.041 24.22 131.061 23.82 130.314 23.02C129.567 22.22 129.194 21.16 129.194 19.84C129.194 17.7733 129.794 16.1133 130.994 14.86C132.194 13.6067 133.801 12.98 135.814 12.98C136.694 12.98 137.614 13.0667 138.574 13.24C138.881 13.2933 139.227 13.3667 139.614 13.46C140.014 13.5533 140.381 13.64 140.714 13.72ZM136.534 21.04L137.214 15.72C136.707 15.5467 136.201 15.46 135.694 15.46C134.774 15.46 134.007 15.8 133.394 16.48C132.781 17.16 132.474 18.0067 132.474 19.02C132.474 19.7933 132.687 20.4333 133.114 20.94C133.541 21.4467 134.081 21.7 134.734 21.7C135.347 21.7 135.947 21.48 136.534 21.04Z" fill="#4E008E"/>
</svg>
